<svg width="256" height="302" xmlns="http://www.w3.org/2000/svg" preserveAspectRatio="xMidYMid" version="1.1">

 <g>
  <title>Layer 1</title>
  <g stroke="null" id="svg_1">
   <path stroke="null" id="svg_2" fill="#264DE4" d="m128.36284,292.08791l-91.52231,-27.79721l-20.39533,-250.27632l224.10961,0l-20.41696,250.23712l-91.775,27.83642l0,0z"/>
   <path stroke="null" id="svg_3" fill="#2965F1" d="m202.65868,248.31725l17.44765,-213.83908l-91.60633,0l0,236.33276l74.15868,-22.49368l0,0z"/>
   <path stroke="null" id="svg_4" fill="#EBEBEB" d="m63.20106,127.30206l2.51459,30.69502l62.78435,0l0,-30.69502l-65.29894,0l0,0z"/>
   <path stroke="null" id="svg_5" fill="#EBEBEB" d="m58.14841,65.17388l2.55042,30.69569l67.80117,0l0,-30.69569l-70.35159,0l0,0z"/>
   <path stroke="null" id="svg_6" fill="#EBEBEB" d="m128.5,207.02125l-0.12295,0.03583l-31.24636,-9.23081l-1.99746,-24.48099l-28.16399,0l3.93066,48.19612l57.47097,17.45513l0.12913,-0.0392l0,-31.93608l0,0z"/>
   <path stroke="null" id="svg_7" fill="#000000" d="m69.18788,-54.00001l33.9809,0l0,15.54691l-19.77071,0l0,15.54692l19.77071,0l0,15.54691l-33.9809,0l0,-46.64075l0,0z"/>
   <path stroke="null" id="svg_8" fill="#000000" d="m109.96497,-54.00001l33.9809,0l0,13.51906l-19.77071,0l0,2.70381l19.77071,0l0,31.09384l-33.9809,0l0,-14.19501l19.7707,0l0,-2.70381l-19.7707,0l0,-30.41788l0,0z"/>
   <path stroke="null" id="svg_9" fill="#000000" d="m150.74205,-54.00001l33.9809,0l0,13.51906l-19.7707,0l0,2.70381l19.7707,0l0,31.09384l-33.9809,0l0,-14.19501l19.77071,0l0,-2.70381l-19.77071,0l0,-30.41788l0,0z"/>
   <path stroke="null" id="svg_10" fill="#FFFFFF" d="m193.61915,127.30206l5.06501,-62.12818l-70.28116,0l0,30.69569l39.534,0l-2.55289,31.43249l-36.98111,0l0,30.69502l34.54808,0l-3.25661,39.80958l-31.29147,9.24028l0,31.93472l57.5167,-17.44026l0.42198,-5.18591l6.59291,-80.81086l0.68456,-8.24257l0,0z"/>
  </g>
 </g>
</svg>