<?xml version="1.0" encoding="utf-8"?>
<!-- Generator: Adobe Illustrator 19.0.0, SVG Export Plug-In . SVG Version: 6.00 Build 0)  -->
<svg version="1.1" id="Calque_1" xmlns="http://www.w3.org/2000/svg" xmlns:xlink="http://www.w3.org/1999/xlink" x="0px" y="0px"
	 viewBox="0 0 295 334.8" style="enable-background:new 0 0 295 334.8;" xml:space="preserve">
<style type="text/css">
	.st0{fill:#B9C8D0;}
	.st1{fill:#8EA5AF;}
	.st2{fill:#ABB8C0;}
	.st3{fill:#81989F;}
	.st4{fill:#E5E9EC;}
	.st5{fill:#3C9443;}
	.st6{fill:#45AC4E;}
	.st7{fill:#FFFFFF;}
</style>
<g id="XMLID_5_">
	<path id="XMLID_14_" class="st0" d="M30.7,241.4C12.5,232.2,1.5,220.2,1.5,207v68.8c0,20.7,27.3,38.7,67.2,47.4v-47.4v-21.4
		C54.1,251.2,41.2,246.8,30.7,241.4z"/>
	<path id="XMLID_10_" class="st0" d="M39.1,168.8c-3.3-1.4-6.5-2.8-9.4-4.4c-17.5-9.2-28.1-21-28.1-33.9v67.7c0,1.5,0.2,2.9,0.4,4.4
		c2.6,13.6,16.8,25.7,38.4,34.4c8.4,3.4,17.9,6.3,28.3,8.6v-17.2v-50.6C57.8,175.5,47.8,172.4,39.1,168.8z"/>
	<path id="XMLID_3_" class="st1" d="M123.3,0C56,0,1.5,23.7,1.5,53c0,13.1,11,25.1,29.1,34.4c3,1.5,6.2,3,9.6,4.4
		c8.4,3.4,18,6.3,28.4,8.6L92,79.3l10.8-9.8L121,53l53.2-48.2C158.7,1.7,141.5,0,123.3,0z"/>
	<path id="XMLID_4_" class="st0" d="M40.3,91.8c-3.4-1.4-6.6-2.8-9.6-4.4C12.5,78.1,1.5,66.1,1.5,53v68.7c0,1.5,0.2,2.9,0.4,4.4
		c2.5,13.3,16.2,25.2,37.1,33.9c3.8,1.6,7.7,3,11.9,4.4c5.6,1.8,11.5,3.4,17.7,4.7v-9.5v-8.8v-50.5l0,0
		C58.3,98.1,48.7,95.2,40.3,91.8z"/>
	<path id="XMLID_9_" class="st2" d="M144.1,275.9c-1.2-5.3-1.9-10.8-2-16.4c-6.1,0.4-12.4,0.6-18.9,0.6c-10,0-19.7-0.5-29-1.5
		c-9-1-17.5-2.3-25.6-4.1v21.4v47.4c1.3,0.3,2.6,0.6,4,0.8c15.4,3.1,32.6,4.8,50.6,4.8c19.7,0,38.3-2.1,54.8-5.7
		C161.2,312.7,148.8,295.8,144.1,275.9z"/>
	<path id="XMLID_2_" class="st3" d="M177.7,5.6c-1.2-0.3-2.3-0.5-3.5-0.7L121,53l-18.2,16.5L92,79.3l-23.3,21.1
		c16.4,3.6,35,5.6,54.6,5.6c7.4,0,14.6-0.3,21.6-0.8c23.5-1.8,44.7-6.6,61.5-13.4c3.4-1.4,6.6-2.8,9.6-4.4
		C234.1,78.1,245,66.1,245,53C245,32.2,217.6,14.3,177.7,5.6z"/>
	<path id="XMLID_7_" class="st2" d="M215.9,87.4c-3,1.5-6.2,3-9.6,4.4c-16.8,6.8-37.9,11.6-61.5,13.4c-7,0.5-14.2,0.8-21.6,0.8
		c-19.6,0-38.2-2-54.6-5.6l0,0v50.5v8.8v9.5c16,3.5,34.1,5.5,53.2,5.6c0.5,0,0.9,0,1.4,0c27.1,0,52.1-3.9,72.3-10.4
		c4.2-1.4,8.2-2.8,11.9-4.4c20.8-8.7,34.6-20.6,37.1-33.9c0.3-1.4,0.4-2.9,0.4-4.4V53C245,66.1,234.1,78.1,215.9,87.4z"/>
	<g id="XMLID_1_">
		<path id="XMLID_8_" class="st3" d="M244.6,126.1c-2.5,13.3-16.2,25.2-37.1,33.9c-3.8,1.6-7.7,3-11.9,4.4
			c-20.2,6.5-45.2,10.4-72.3,10.4c-0.5,0-0.9,0-1.4,0c-19.1-0.1-37.2-2.1-53.2-5.6c-6.2-1.4-12.1-2.9-17.7-4.7
			c-4.2-1.4-8.2-2.8-11.9-4.4C18.2,151.3,4.5,139.4,2,126.1c-0.3-1.4-0.4-2.9-0.4-4.4v8.8c0,12.9,10.6,24.7,28.1,33.9
			c2.9,1.5,6.1,3,9.4,4.4c8.7,3.6,18.7,6.7,29.6,9.1c15.2,3.3,32.3,5.3,50.3,5.6c1.4,0,2.8,0,4.3,0c32.7,0,62.3-5.6,84.2-14.7
			c3.3-1.4,6.5-2.8,9.4-4.4c17.5-9.2,28.1-21,28.1-33.9v-8.8C245,123.2,244.9,124.7,244.6,126.1z"/>
		<path id="XMLID_19_" class="st3" d="M244.6,202.6c-2.4,12.7-15,24.1-34.3,32.7c-1.3,0.6-2.7,1.2-4.1,1.7c-3,1.2-6,2.3-9.3,3.4
			c-12.4,4.1-26.7,7.2-42.2,9c-4,0.5-8.1,0.8-12.3,1.1c-6.3,0.4-12.7,0.7-19.2,0.7c-9,0-17.8-0.4-26.2-1.2c-10-1-19.5-2.4-28.4-4.4
			c-10.4-2.3-19.9-5.2-28.3-8.6C18.8,228.3,4.5,216.2,2,202.6c-0.3-1.4-0.4-2.9-0.4-4.4v8.8c0,13.1,11,25.1,29.2,34.4
			c10.5,5.3,23.4,9.8,38,13c8.1,1.8,16.6,3.1,25.6,4.1c9.3,1,19,1.5,29,1.5c6.4,0,12.7-0.2,18.9-0.6c4.1-0.3,8.1-0.6,12-1.1
			c15.7-1.8,30.2-4.9,42.8-9.1c6.9-2.3,13.3-4.9,18.9-7.8c0.9-0.5,1.8-1,2.7-1.4c16.5-9,26.4-20.5,26.4-33v-7.3v-1.4
			c0,0.5-0.1,0.9-0.1,1.4C244.9,200.7,244.8,201.7,244.6,202.6z"/>
	</g>
	<path id="XMLID_16_" class="st2" d="M216.9,164.4c-2.9,1.5-6.1,3-9.4,4.4c-21.9,9.1-51.5,14.7-84.2,14.7c-1.4,0-2.8,0-4.3,0
		c-18.1-0.3-35.1-2.3-50.3-5.6v50.6v17.2c8.9,1.9,18.4,3.4,28.4,4.4c8.4,0.8,17.2,1.2,26.2,1.2c6.5,0,13-0.2,19.2-0.7
		c4.2-0.3,8.3-0.7,12.3-1.1c15.5-1.8,29.8-4.9,42.2-9c3.2-1.1,6.3-2.2,9.3-3.4c1.4-0.6,2.7-1.1,4.1-1.7c19.3-8.6,31.9-20,34.3-32.7
		c0.2-1,0.3-2,0.4-3c0-0.5,0.1-0.9,0.1-1.4v-11.6v-56.2C245,143.4,234.5,155.2,216.9,164.4z"/>
	<g id="XMLID_54_">
		<circle id="XMLID_85_" class="st4" cx="218.5" cy="258.3" r="76.4"/>
		<g id="XMLID_78_">
			<path id="XMLID_82_" class="st5" d="M218.5,197.7c34.9,0,63.3,27.8,64.3,62.5c0-0.6,0-1.3,0-1.9c0-35.6-28.8-64.4-64.4-64.4
				c-35.6,0-64.4,28.8-64.4,64.4c0,0.6,0,1.3,0,1.9C155.2,225.6,183.6,197.7,218.5,197.7z"/>
			<path id="XMLID_79_" class="st6" d="M218.5,322.7c34.9,0,63.3-27.8,64.3-62.5c-1-34.7-29.4-62.5-64.3-62.5
				c-34.9,0-63.3,27.8-64.3,62.5C155.2,294.9,183.6,322.7,218.5,322.7z"/>
		</g>
		<polygon id="XMLID_67_" class="st5" points="251.4,261.5 196.9,231 196.9,256 196.9,267.1 196.9,292 251.4,261.5 251.4,261.5 		
			"/>
		<polygon id="XMLID_58_" class="st7" points="251.4,258.3 196.9,227.8 196.9,252.8 196.9,263.9 196.9,288.9 251.4,258.3 
			251.4,258.3 		"/>
	</g>
</g>
</svg>
